<?xml version="1.0" encoding="utf-8"?>
<!-- Generator: Adobe Illustrator 19.0.0, SVG Export Plug-In . SVG Version: 6.00 Build 0)  -->
<svg version="1.1" id="Capa_1" xmlns="http://www.w3.org/2000/svg" xmlns:xlink="http://www.w3.org/1999/xlink" x="0px" y="0px"
	 viewBox="-14 138 566.9 566.9" style="enable-background:new -14 138 566.9 566.9;" xml:space="preserve">
<style type="text/css">
	.st0{fill:#010002;}
</style>
<g>
	<path d="M532.4,163.9H6.5c-11.4,0-20.5,9.2-20.5,20.5v474c0,11.4,9.2,20.5,20.5,20.5h525.9c11.3,0,20.6-9.1,20.5-20.5v-474
		C552.9,173,543.7,163.9,532.4,163.9z M508.7,192.9c8.4,0,15.3,6.9,15.3,15.3s-6.9,15.3-15.3,15.3c-8.4,0-15.3-6.9-15.3-15.3
		S500.2,192.9,508.7,192.9z M463.5,192.9c8.4,0,15.3,6.9,15.3,15.3s-6.9,15.3-15.3,15.3s-15.3-6.9-15.3-15.3S455,192.9,463.5,192.9z
		 M418.2,192.9c8.4,0,15.3,6.9,15.3,15.3s-6.9,15.3-15.3,15.3s-15.3-6.9-15.3-15.3S409.7,192.9,418.2,192.9z M524,650H14.9V252.5
		H524V650z"/>
	<g>
		<path class="st0" d="M202.7,539L97.5,481.6v-31.8l105.2-57.1V430l-73.3,35.3l73.3,36.6C202.7,501.8,202.7,539,202.7,539z"/>
		<path class="st0" d="M220.8,559.1l69.8-186.5h22.1l-70.1,186.5H220.8z"/>
		<path class="st0" d="M336.3,539v-37.1l73.3-36.3l-73.3-36v-36.9l105.2,57.1v31.7L336.3,539z"/>
	</g>
</g>
</svg>
