<?xml version="1.0" encoding="utf-8"?>
<!-- Generator: Adobe Illustrator 19.0.0, SVG Export Plug-In . SVG Version: 6.00 Build 0)  -->
<svg version="1.1" id="Capa_1" xmlns="http://www.w3.org/2000/svg" xmlns:xlink="http://www.w3.org/1999/xlink" x="0px" y="0px"
	 viewBox="-548.5 137.5 566.9 566.9" style="enable-background:new -548.5 137.5 566.9 566.9;" xml:space="preserve">
<g>
	<g>
		<path d="M-277.2,492.6h-24.4c-12.2,0-21.3-9.1-21.3-21.3c0-3,3-9.1,6.1-12.2c15.2-12.2,24.4-30.5,33.5-51.8c3,0,3,3,6.1,3
			c12.2,0,27.4-30.5,27.4-48.8c0-21.3-3-36.6-15.2-36.6c-3,0-3,0-6.1,0c0-54.9-15.2-121.9-97.5-121.9c-85.3,0-97.5,67.1-97.5,121.9
			h-3c-12.2,0-15.2,15.2-15.2,36.6s15.2,48.8,27.4,48.8c3,0,3,0,6.1,0c9.1,18.3,18.3,36.6,33.5,48.8c3,3,6.1,6.1,6.1,12.2
			c0,12.2-9.1,21.3-21.3,21.3h-24.4c-51.8,0-91.4,39.6-91.4,91.4v24.4c0,15.2,12.2,30.5,27.4,30.5h304.8c15.2,0,27.4-12.2,27.4-30.5
			V584C-185.8,532.2-228.5,492.6-277.2,492.6z"/>
		<path d="M-2.9,239.6h-256c6.1,15.2,12.2,36.6,15.2,61c6.1,3,9.1,9.1,12.2,15.2H-2.9c12.2,0,21.3-9.1,21.3-21.3v-33.5
			C18.4,248.7,9.3,239.6-2.9,239.6z"/>
		<path d="M-2.9,379.8h-222.5c-6.1,24.4-21.3,45.7-42.7,51.8c0,0,0,3-3,3V456H-2.9c12.2,0,21.3-9.1,21.3-21.3v-33.5
			C18.4,388.9,9.3,379.8-2.9,379.8z"/>
		<path d="M-2.9,520h-173.7c12.2,18.3,18.3,39.6,18.3,64v15.2H-2.9c12.2,0,21.3-9.1,21.3-21.3v-33.5C18.4,529.1,9.3,520-2.9,520z"/>
	</g>
</g>
</svg>
