<?xml version="1.0" encoding="utf-8"?>
<!-- Generator: Adobe Illustrator 19.0.0, SVG Export Plug-In . SVG Version: 6.00 Build 0)  -->
<svg version="1.1" id="Capa_1" xmlns="http://www.w3.org/2000/svg" xmlns:xlink="http://www.w3.org/1999/xlink" x="0px" y="0px"
	 viewBox="-480.5 137.4 566.9 566.9" style="enable-background:new -480.5 137.4 566.9 566.9;" xml:space="preserve">
<g>
	<path d="M-123.9,632.4c-9.6-7.4-10.8-18.1-10.8-18.1l-3.4-23.8h-117.4l-4,23.8c0,0-1.1,10.8-10.8,18.1c-9.6,7.4-17.6,13.6-9.6,14.7
		c7.4,1.1,77.7,0,83.3,0c5.1,0,75.4,1.1,83.3,0C-106.3,646-113.7,639.8-123.9,632.4z"/>
	<path d="M63.8,194.1h-521.6c-12.5,0-22.7,10.2-22.7,22.7v328.8c0,12.5,10.2,22.7,22.7,22.7H63.8c12.5,0,22.7-10.2,22.7-22.7V216.8
		C86.5,204.4,76.3,194.1,63.8,194.1z M52.4,500.3h-498.9V228.2H52.4V500.3z"/>
	<g>
		<path id="Brush" d="M-273,278.6c4.5-4.5,11.3-4.5,15.9,0l90.7,91.3l-21.5,21.5l-90.7-91.3c-4.5-4.5-4.5-11.3,0-15.9L-273,278.6z
			 M-163.6,373.3l18.7,18.7l-21.5,21.5l-18.7-18.7L-163.6,373.3z M-114.8,452.1c3.4,3.4,9.6-45.4-27.2-57.3
			c-21.5,21.5,0,0-21.5,21.5C-153.3,440.2-125,441.9-114.8,452.1z"/>
		<path id="Pencil" d="M-131.2,280.3c-5.1-5.1-14.2-5.1-19.3,0l-13,13l25.5,25.5l13-13c5.1-5.1,5.1-14.2,0-19.3L-131.2,280.3z
			 M-167,297.3l-96.4,96.4l25.5,25.5l96.4-96.4L-167,297.3z M-295.6,452.1l28.9-54.4l25.5,25.5L-295.6,452.1z"/>
	</g>
</g>
</svg>
