<?xml version="1.0" encoding="utf-8"?>
<!-- Generator: Adobe Illustrator 19.0.1, SVG Export Plug-In . SVG Version: 6.00 Build 0)  -->
<svg version="1.1" id="Capa_1" xmlns="http://www.w3.org/2000/svg" xmlns:xlink="http://www.w3.org/1999/xlink" x="0px" y="0px"
	 viewBox="-14 138 566.9 566.9" style="enable-background:new -14 138 566.9 566.9;" xml:space="preserve">
<style type="text/css">
	.st0{fill:#B7B7B7;}
	.st1{fill:#666666;}
	.st2{fill:#009B51;}
	.st3{fill:#DB4D4D;}
	.st4{fill:#A06927;}
	.st5{fill:#EFAC4D;}
</style>
<g>
	<path class="st0" d="M342.6,633c-9.6-7.4-10.8-18.1-10.8-18.1l-3.4-23.8H211l-4,23.8c0,0-1.1,10.8-10.8,18.1
		c-9.6,7.4-17.6,13.6-9.6,14.7c7.4,1.1,77.7,0,83.3,0c5.1,0,75.4,1.1,83.3,0C360.2,646.6,352.8,640.4,342.6,633z"/>
	<path class="st0" d="M530.2,194.7H8.7c-12.5,0-22.7,10.2-22.7,22.7v328.8c0,12.5,10.2,22.7,22.7,22.7h521.6
		c12.5,0,22.7-10.2,22.7-22.7V217.4C553,205,542.8,194.7,530.2,194.7z M518.9,500.9H20V228.8h498.9V500.9z"/>
	<g>
		
			<rect x="288.2" y="378.8" transform="matrix(0.7071 0.7071 -0.7071 0.7071 366.909 -97.7405)" class="st1" width="26.4" height="30.4"/>
		<path class="st2" d="M351.7,452.7c3.4,3.4,9.6-45.4-27.2-57.3c-21.5,21.5,0,0-21.5,21.5C313.2,440.8,341.5,442.5,351.7,452.7z"/>
		<path class="st3" d="M335.2,280.9c-5.1-5.1-14.2-5.1-19.3,0l-13,13l25.5,25.5l13-13c5.1-5.1,5.1-14.2,0-19.3L335.2,280.9z"/>
		<polygon class="st1" points="170.9,452.7 199.8,398.3 225.2,423.8 		"/>
		<polygon points="170.9,452.7 176.4,442.2 181,447.3 		"/>
		<path id="Brush" class="st4" d="M193.5,279.2c4.5-4.5,11.3-4.5,15.9,0l90.7,91.3L278.5,392l-90.7-91.3c-4.5-4.5-4.5-11.3,0-15.9
			L193.5,279.2z"/>
		<path id="Pencil" class="st5" d="M299.5,297.9l-96.4,96.4l25.5,25.5l96.4-96.4L299.5,297.9z"/>
		<path id="Pencil_1_" d="M306.5,304.9l-96.4,96.4l2.5,2.5l96.4-96.4L306.5,304.9z"/>
		<path id="Pencil_2_" d="M315.5,313.9l-96.4,96.4l2.5,2.5l96.4-96.4L315.5,313.9z"/>
	</g>
</g>
</svg>
