<?xml version="1.0" encoding="utf-8"?>
<!-- Generator: Adobe Illustrator 19.0.0, SVG Export Plug-In . SVG Version: 6.00 Build 0)  -->
<svg version="1.1" id="Capa_1" xmlns="http://www.w3.org/2000/svg" xmlns:xlink="http://www.w3.org/1999/xlink" x="0px" y="0px"
	 viewBox="-14 138 566.9 566.9" style="enable-background:new -14 138 566.9 566.9;" xml:space="preserve">
<g>
	<path d="M552.9,222.4h-567l0,398.1h566.9L552.9,222.4z M505.4,250.1L271.1,478.4l-53.6-52.1l0,0L33.7,250L505.4,250.1L505.4,250.1z
		 M13.7,578.1V268.7L187,435.3L13.7,578.1z M263.6,593.7H38.2l168.9-138.4l54.3,52.8c2.2,2.2,4.5,3,6.7,3.7h0.8c0.8,0,0.8,0,1.5,0
		l0,0c0.8,0,1.5,0,1.5,0h0.8c2.2-0.8,5.2-1.5,6.7-3.7l51.3-49.9l169.5,135.5H263.6L263.6,593.7z M525.5,578.8L351.4,438.3
		l174.1-169.6V578.8z"/>
</g>
</svg>
