<?xml version="1.0" encoding="utf-8"?>
<!-- Generator: Adobe Illustrator 19.0.0, SVG Export Plug-In . SVG Version: 6.00 Build 0)  -->
<svg version="1.1" id="Capa_1" xmlns="http://www.w3.org/2000/svg" xmlns:xlink="http://www.w3.org/1999/xlink" x="0px" y="0px"
	 viewBox="30.6 137.4 566.9 566.9" style="enable-background:new 30.6 137.4 566.9 566.9;" xml:space="preserve">
<g>
	<path d="M597.5,259.8v-2.2c0-8.2-3.7-17.8-10.4-24.5l-0.8-0.8c0,0-0.8,0-0.8-0.8c-1.5-1.5-3-2.2-4.5-3.7c-0.8,0-0.8-0.8-1.5-0.8
		c-1.5-0.8-3.7-1.5-5.2-2.2c-0.8,0-0.8-0.8-1.5-0.8c-2.2-0.8-4.5-1.5-6.7-1.5c-0.8,0-0.8,0-1.5,0c-2.2,0-5.2-0.8-8.2-0.8H70.8
		c-3,0-5.9,0-9,0.8c-0.8,0-1.5,0-2.2,0.8c-2.2,0.8-4.5,0.8-5.9,1.5c-0.8,0-0.8,0.8-1.5,0.8c-1.5,0.8-3.7,1.5-5.2,2.2l-0.8,0.8
		c-1.5,0.8-3,2.2-4.5,3c-0.8,0.8-1.5,1.5-2.2,2.2c-5.2,5.9-8.2,12.7-9,20.1c0,0.8,0,0.8,0,1.5v331c0,0.8,0,0.8,0,1.5
		c1.5,10.4,6.7,19.4,14.1,24.5c6.7,4.5,14.9,7.4,24.5,7.4H558c0,0,0,0,0.8,0l0,0c2.2,0,5.2,0,7.4-0.8c0.8,0,0.8,0,1.5,0
		c2.2-0.8,4.5-0.8,5.9-1.5h0.8c16.4-5.9,23.1-20.1,23.1-33.5v-2.2v-0.8v-0.8V262c0-0.8,0-0.8,0-1.5
		C597.5,260.5,597.5,260.5,597.5,259.8z M549.9,249.4L315.6,477.7L262,425.6l0,0L78.2,249.3L549.9,249.4L549.9,249.4z M58.2,577.4
		V268l173.3,166.6L58.2,577.4z M308.1,593H82.7l168.9-138.4l54.3,52.8c2.2,2.2,4.5,3,6.7,3.7h0.8c0.8,0,0.8,0,1.5,0l0,0
		c0.8,0,1.5,0,1.5,0h0.8c2.2-0.8,5.2-1.5,6.7-3.7l51.3-49.9L544.7,593L308.1,593L308.1,593z M570,578.1L395.9,437.6L570,268V578.1z"
		/>
</g>
</svg>
