<?xml version="1.0" encoding="utf-8"?>
<!-- Generator: Adobe Illustrator 19.0.0, SVG Export Plug-In . SVG Version: 6.00 Build 0)  -->
<svg version="1.1" id="Capa_1" xmlns="http://www.w3.org/2000/svg" xmlns:xlink="http://www.w3.org/1999/xlink" x="0px" y="0px"
	 viewBox="-64.6 137.6 566.9 566.9" style="enable-background:new -64.6 137.6 566.9 566.9;" xml:space="preserve">
<g>
	<g>
		<path d="M426.4,268.8l-59.5-0.3l-57-85c-3.4-5.3-9.3-8.7-15.6-8.7H140.8c-6.3,0-11.9,3.4-15.3,8.5l-58.9,85.3l-55.2,0.3
			c-41.8,0-76,34.3-76,76v245.7c0,41.8,34.3,76.6,76,76.6h415c41.8,0,76-34.9,76-76.6V344.9C502.5,303.1,468.2,268.8,426.4,268.8z
			 M465.1,590.6c0,21.2-17.5,39.3-38.6,39.3H11.5c-21.1,0-38.6-18-38.6-39.3V344.9c0-21.2,17.5-38.6,38.6-38.6h65.1
			c6.3,0,11.9-3.4,15.3-8.4l58.9-85.3h133.6l56.7,84.8c3.4,4.9,9.3,8.4,15.3,8.4l69.8,0.7c21.2,0,38.6,17.5,38.6,38.6v245.9
			L465.1,590.6L465.1,590.6z"/>
		<path d="M220.5,313.7c-73.2,0-132.4,59.5-132.4,132.4s59.5,132.4,132.4,132.4S352.9,519,352.9,446.1S293.4,313.7,220.5,313.7z
			 M220.5,541.2c-52.3,0-95-42.7-95-95s42.7-95,95-95s95,42.7,95,95S272.9,541.2,220.5,541.2z"/>
		<path d="M397.9,342.7c-14.3,0-25.8,11.5-25.8,25.8s11.5,25.8,25.8,25.8c14.3,0,25.8-11.5,25.8-25.8S412.2,342.7,397.9,342.7z"/>
	</g>
</g>
</svg>
