<?xml version="1.0" encoding="utf-8"?>
<!-- Generator: Adobe Illustrator 19.0.1, SVG Export Plug-In . SVG Version: 6.00 Build 0)  -->
<svg version="1.1" id="Capa_1" xmlns="http://www.w3.org/2000/svg" xmlns:xlink="http://www.w3.org/1999/xlink" x="0px" y="0px"
	 viewBox="-14 138 566.9 566.9" style="enable-background:new -14 138 566.9 566.9;" xml:space="preserve">
<style type="text/css">
	.st0{fill:#494949;}
	.st1{fill:#1F80B5;}
	.st2{fill:#EFD96F;}
</style>
<g>
	<path class="st0" d="M476.9,269.2l-59.5-0.3l-57-85c-3.4-5.3-9.3-8.7-15.6-8.7H191.3c-6.3,0-11.9,3.4-15.3,8.5L117.1,269l-55.2,0.3
		c-41.8,0-76,34.3-76,76V591c0,41.8,34.3,76.6,76,76.6h415c41.8,0,76-34.9,76-76.6V345.3C553,303.5,518.7,269.2,476.9,269.2z
		 M515.6,591c0,21.2-17.5,39.3-38.6,39.3H62c-21.1,0-38.6-18-38.6-39.3V345.3c0-21.2,17.5-38.6,38.6-38.6h65.1
		c6.3,0,11.9-3.4,15.3-8.4l58.9-85.3h133.6l56.7,84.8c3.4,4.9,9.3,8.4,15.3,8.4l69.8,0.7c21.2,0,38.6,17.5,38.6,38.6v245.9
		L515.6,591L515.6,591z"/>
	<circle class="st1" cx="271" cy="446.6" r="107"/>
	<path d="M271,314.1c-73.2,0-132.4,59.5-132.4,132.4S198.1,578.9,271,578.9s132.4-59.5,132.4-132.4S343.9,314.1,271,314.1z
		 M271,541.6c-52.3,0-95-42.7-95-95s42.7-95,95-95s95,42.7,95,95S323.4,541.6,271,541.6z"/>
	<path class="st2" d="M448.4,343.1c-14.3,0-25.8,11.5-25.8,25.8s11.5,25.8,25.8,25.8s25.8-11.5,25.8-25.8S462.7,343.1,448.4,343.1z"
		/>
</g>
</svg>
